<?xml version="1.0" encoding="UTF-8"?>
<!DOCTYPE svg PUBLIC "-//W3C//DTD SVG 1.1//EN" "http://www.w3.org/Graphics/SVG/1.1/DTD/svg11.dtd">
<!-- Creator: CorelDRAW X8 -->
<svg xmlns="http://www.w3.org/2000/svg" xml:space="preserve" width="8.5in" height="11in" version="1.1" style="shape-rendering:geometricPrecision; text-rendering:geometricPrecision; image-rendering:optimizeQuality; fill-rule:evenodd; clip-rule:evenodd"
viewBox="0 0 8500 11000"
 xmlns:xlink="http://www.w3.org/1999/xlink">
 <defs>
  <style type="text/css">
   <![CDATA[
    .str0 {stroke:#373435;stroke-width:6.94488}
    .fil0 {fill:none}
   ]]>
  </style>
 </defs>
 <g id="Layer_x0020_1">
  <metadata id="CorelCorpID_0Corel-Layer"/>
  <path class="fil0 str0" d="M1811 2647c0,1010 -218,1386 686,1797 258,118 752,-216 843,540 68,575 266,725 96,1474 -169,742 -19,571 -398,1407 -422,932 -20,925 758,1423 641,411 2601,355 2881,-425 434,-1211 -954,-1451 -1068,-1896 -120,-465 -235,-953 -95,-1435 149,-512 -107,-719 507,-1208 256,-203 1226,-1044 1226,-1371 0,-1214 -796,-1122 -1311,-1657 -457,-474 -2442,76 -3085,-442 -186,-149 -758,-541 -891,-168 -79,220 341,414 487,841 186,541 -305,834 -568,1278 -13,21 -118,102 -158,112"/>
 </g>
</svg>
