<svg xmlns:dc="http://purl.org/dc/elements/1.1/" xmlns:cc="http://web.resource.org/cc/" xmlns:rdf="http://www.w3.org/1999/02/22-rdf-syntax-ns#" xmlns:svg="http://www.w3.org/2000/svg" xmlns="http://www.w3.org/2000/svg" xmlns:sodipodi="http://sodipodi.sourceforge.net/DTD/sodipodi-0.dtd" xmlns:inkscape="http://www.inkscape.org/namespaces/inkscape" version="1.0" width="410.43536" height="285.17389" id="svg2" sodipodi:version="0.32" inkscape:version="0.45.1" sodipodi:docname="TheresaKnott_Santa_Hat.svg" sodipodi:docbase="/Users/johnolsen/Desktop" inkscape:output_extension="org.inkscape.output.svg.inkscape">
  <metadata id="metadata16">
    <rdf:RDF>
      <cc:Work rdf:about="">
        <dc:format>image/svg+xml</dc:format>
        <dc:type rdf:resource="http://purl.org/dc/dcmitype/StillImage"/>
      </cc:Work>
    </rdf:RDF>
  </metadata>
  <sodipodi:namedview inkscape:window-height="581" inkscape:window-width="697" inkscape:pageshadow="2" inkscape:pageopacity="0.0" guidetolerance="10.0" gridtolerance="10.0" objecttolerance="10.0" borderopacity="1.0" bordercolor="#666666" pagecolor="#ffffff" id="base" inkscape:zoom="0.37439582" inkscape:cx="372.04724" inkscape:cy="526.18109" inkscape:window-x="0" inkscape:window-y="22" inkscape:current-layer="svg2"/>
  <defs id="defs4"/>
  <g id="layer1" transform="translate(-8.9025329,-24.385462)">
   
   <path onclick="console.log('copa click');"  xmlns="http://www.w3.org/2000/svg" id="copasvg" fill="none" stroke="#000000" stroke-miterlimit="10" d="M128.718,23.087c-4.817,11.227-1.59,35.748-0.826,48.826  c10.842,5.391,24.353,17.992,32.575,27.425c9.161,10.511,5.251,31.315,5.251,45.749c0,17.686,0,35.37,0,53.055  c0,8.954,1.965,20.253,0.02,28.945c-2.524,11.281-9.372,11.082-19.02,12c-7.159,0.681-13.005,1.711-18.948,4.301  c-6.277,2.735-12.745,8.131-18.75,9.695c13.288-0.376,20.853,11.895,35.698,12.004c14.668,0.107,28.699,2.484,42.997,3  c30.873,1.113,59.507-1.108,83.856-18.171c4.749-16.796-31.723-11.916-40.853-12.829c-14.937-1.494-32.802,1.891-44.726-8.251  c-11.089-9.432-5.911-30.852-5.222-44.697c0.825-16.578-0.052-33.446-0.052-50.052c0-8.151-1.168-15.351,3.254-21.968  c4.322-6.466,11.339-7.017,16.721-13.283c10.292-11.985,11.074-27.98,14.999-43.776c3.895-15.673,2.831-30.888-3.999-44.948  c-5.246-10.801-3.932-7.956-15.197-6.224c-7.972,1.226-14.716,1.622-21.729,3.473c-15.171,4.006-32.148,0.932-46.901-0.119  c-1.096,8.132,6.235,16.376-1.147,21.845"
    style="fill:#ffffff;fill-opacity:1;fill-rule:evenodd;stroke:#000000;stroke-width:0.81360233;stroke-linecap:butt;stroke-linejoin:miter;stroke-miterlimit:4;stroke-dasharray:none;stroke-opacity:1"/>

    
  </g>
</svg>