<?xml version="1.0" encoding="UTF-8"?>
<!DOCTYPE svg PUBLIC "-//W3C//DTD SVG 1.1//EN" "http://www.w3.org/Graphics/SVG/1.1/DTD/svg11.dtd">
<!-- Creator: CorelDRAW X8 -->
<svg xmlns="http://www.w3.org/2000/svg" xml:space="preserve" width="8.5in" height="11in" version="1.1" style="shape-rendering:geometricPrecision; text-rendering:geometricPrecision; image-rendering:optimizeQuality; fill-rule:evenodd; clip-rule:evenodd"
viewBox="0 0 8500 11000"
 xmlns:xlink="http://www.w3.org/1999/xlink">
 <defs>
  <style type="text/css">
   <![CDATA[
    .str0 {stroke:#373435;stroke-width:6.94488}
    .fil0 {fill:none}
   ]]>
  </style>
 </defs>
 <g id="Layer_x0020_1">
  <metadata id="CorelCorpID_0Corel-Layer"/>
  <path class="fil0 str0" d="M1178 1362c0,1033 -36,1327 125,2353 79,500 -154,1224 986,1075 100,-183 468,41 520,489 129,1114 557,2766 -620,3383 -301,158 -396,1800 926,1800 314,0 1812,145 2030,-133 364,0 1242,-955 833,-1251 -755,-545 -272,-877 -640,-1555 -406,-749 -374,-319 -296,-1010 114,-1009 -390,-219 -72,-1376 160,-582 696,546 1781,-1166 67,-107 292,-2003 -257,-2365 -718,-474 -1565,-179 -2123,-660 -495,-426 -1807,169 -2337,-279 -1708,-1441 -1302,1261 -1245,1265 147,8 396,-3 556,-3"/>
 </g>
</svg>
